<?xml version="1.0"?>
<svg width="512" height="512" xmlns="http://www.w3.org/2000/svg" xmlns:svg="http://www.w3.org/2000/svg" enable-background="new 0 0 512 512" version="1.1" xml:space="preserve">
 <g class="layer">
  <title>Layer 1</title>
  <g id="svg_1">
   <path d="m256,512c-32.63,0 -59.08,-26.45 -59.08,-59.08l0,-393.84c0,-32.63 26.45,-59.08 59.08,-59.08s59.08,26.45 59.08,59.08l0,393.84c0,32.63 -26.45,59.08 -59.08,59.08z" fill="red" id="svg_2"/>
   <path d="m452.92,513.07c-15.12,0 -30.24,-5.76 -41.77,-17.3l-155.15,-155.14l-155.15,155.14c-23.07,23.08 -60.47,23.08 -83.54,0c-23.08,-23.07 -23.08,-60.47 0,-83.55l196.92,-196.91c23.06,-23.08 60.47,-23.08 83.54,0l196.92,196.91c23.07,23.08 23.07,60.48 0,83.56c-11.53,11.53 -26.65,17.29 -41.77,17.29z" fill="red" id="svg_3" transform="rotate(180 256 355.54)"/>
  </g>
  <g id="svg_4"/>
  <g id="svg_5"/>
  <g id="svg_6"/>
  <g id="svg_7"/>
  <g id="svg_8"/>
  <g id="svg_9"/>
  <g id="svg_10"/>
  <g id="svg_11"/>
  <g id="svg_12"/>
  <g id="svg_13"/>
  <g id="svg_14"/>
  <g id="svg_15"/>
  <g id="svg_16"/>
  <g id="svg_17"/>
  <g id="svg_18"/>
 </g>

</svg>